# xmcd CD database file
#
# Track frame offsets:
#	150
#	11674
#	25001
#	38233
#	62018
#	74680
#	91192
#	103316
#	115958
#	128238
#	152427
#	165779
#	178241
#	208476
#	220830
#	245580
#	257875
#	276432
#
# Disc length: 4070 seconds
#
# Revision: 0
# Processed by: cddbd v1.5PL3 Copyright (c) Steve Scherf et al.
# Submitted via: CDex 1.50beta10
#
DISCID=0a0fe412
DTITLE=Bossa Nova for Lovers - Bossa Nova for Lovers
DYEAR=2004
DGENRE=Jazz
TTITLE0=ASTRUD GILBERTO-THE SHADOW OF YOUR SMILE
TTITLE1=STAN GETZ AND JOAO GILBERTO-VIVO SONHANDO(DREAMER)
TTITLE2=ANTONIO CARLOS JOBIM-WAVE
TTITLE3=STAN GETZ AND LAURINDO ALMEIDA-COROVADO
TTITLE4=ASTRUD GILBERTO-MY FOOLISH HEART
TTITLE5=ANTONIO CARLOS JOBIM-AMOR EM PAZ(ONCE I LOVED)
TTITLE6=ASTRUD GILBERTO-MISTY ROSES
TTITLE7=ANTONIO CARLOS JOBIM-DESAFINADO
TTITLE8=ASTRUD GILBERTO AND WALTER WANDERLEY-SO NICE(SUMMER SAMBA)
TTITLE9=STAN GETZ AND LAURINDO ALMEIDA-WINTER MOON
TTITLE10=ANTONIO CARLOS JOBIM-INSENSATEZ(HOW INSENSITIVE)
TTITLE11=ASTRUD GILBERTO-DINDI
TTITLE12=STAN GETZ AND CHARLIE BYRD-BAHIA
TTITLE13=ANTONIO CARLOS JOBIM-THE GIRL FROM IPANEMA
TTITLE14=STAN GETZ AND JOAO GILBERTO-O GRANDE AMOR
TTITLE15=ASTRUD GILBERTO-MEDITATION
TTITLE16=CARMEN MCRAE-MY MAN
TTITLE17=KEIKO LEE-WHAT A WONDERFUL WORLD
EXTD=YEAR: 2004
EXTT0=
EXTT1=
EXTT2=
EXTT3=
EXTT4=
EXTT5=
EXTT6=
EXTT7=
EXTT8=
EXTT9=
EXTT10=
EXTT11=
EXTT12=
EXTT13=
EXTT14=
EXTT15=
EXTT16=
EXTT17=
PLAYORDER=
